HIERARCHY
ROOT hip
{
  OFFSET -19.2285 84.2826 -44.7531
  CHANNELS 6 Xposition Yposition Zposition Zrotation Xrotation Yrotation
  JOINT abdomen
  {
    OFFSET 0 20.6881 -0.73152
    CHANNELS 3 Zrotation Xrotation Yrotation
    JOINT chest
    {
      OFFSET 0 11.7043 -0.48768
      CHANNELS 3 Zrotation Xrotation Yrotation
      JOINT neck
      {
        OFFSET 0 22.1894 -2.19456
        CHANNELS 3 Zrotation Xrotation Yrotation
        JOINT head
        {
          OFFSET -0.24384 7.07133 1.2192
          CHANNELS 3 Zrotation Xrotation Yrotation
          JOINT leftEye
          {
            OFFSET 4.14528 8.04674 8.04672
            CHANNELS 3 Zrotation Xrotation Yrotation
            End Site
            {
              OFFSET 1 0 0
            }
          }
          JOINT rightEye
          {
            OFFSET -3.6576 8.04674 8.04672
            CHANNELS 3 Zrotation Xrotation Yrotation
            End Site
            {
              OFFSET 1 0 0
            }
          }
        }
      }
      JOINT rCollar
      {
        OFFSET -2.68224 19.2634 -4.8768
        CHANNELS 3 Zrotation Xrotation Yrotation
        JOINT rShldr
        {
          OFFSET -8.77824 -1.95073 1.46304
          CHANNELS 3 Zrotation Xrotation Yrotation
          JOINT rForeArm
          {
            OFFSET -28.1742 -1.7115 0.48768
            CHANNELS 3 Zrotation Xrotation Yrotation
            JOINT rHand
            {
              OFFSET -22.5879 0.773209 7.07136
              CHANNELS 3 Zrotation Xrotation Yrotation
              JOINT rThumb1
              {
                OFFSET -1.2192 -0.487915 3.41376
                CHANNELS 3 Zrotation Xrotation Yrotation
                JOINT rThumb2
                {
                  OFFSET -3.37035 -0.52449 3.41376
                  CHANNELS 3 Zrotation Xrotation Yrotation
                  End Site
                  {
                    OFFSET -1.78271 -1.18214 1.43049
                  }
                }
              }
              JOINT rIndex1
              {
                OFFSET -7.75947 0.938293 5.60832
                CHANNELS 3 Zrotation Xrotation Yrotation
                JOINT rIndex2
                {
                  OFFSET -2.54057 -0.884171 1.56538
                  CHANNELS 3 Zrotation Xrotation Yrotation
                  End Site
                  {
                    OFFSET -1.62519 -0.234802 1.16502
                  }
                }
              }
              JOINT rMid1
              {
                OFFSET -8.24714 1.18213 3.41376
                CHANNELS 3 Zrotation Xrotation Yrotation
                JOINT rMid2
                {
                  OFFSET -3.10165 -0.590103 1.0647
                  CHANNELS 3 Zrotation Xrotation Yrotation
                  End Site
                  {
                    OFFSET -2.48547 -0.328903 0.83742
                  }
                }
              }
              JOINT rRing1
              {
                OFFSET -8.82822 0.546677 1.51678
                CHANNELS 3 Zrotation Xrotation Yrotation
                JOINT rRing2
                {
                  OFFSET -2.60934 -0.819778 -0.0198488
                  CHANNELS 3 Zrotation Xrotation Yrotation
                  End Site
                  {
                    OFFSET -2.33842 -0.294052 0.168128
                  }
                }
              }
              JOINT rPinky1
              {
                OFFSET -8.27202 -0.0477905 -0.4584
                CHANNELS 3 Zrotation Xrotation Yrotation
                JOINT rPinky2
                {
                  OFFSET -1.82734 -0.647385 -0.700984
                  CHANNELS 3 Zrotation Xrotation Yrotation
                  End Site
                  {
                    OFFSET -1.69225 -0.51767 -0.607171
                  }
                }
              }
            }
          }
        }
      }
      JOINT lCollar
      {
        OFFSET 2.68224 19.2634 -4.8768
        CHANNELS 3 Zrotation Xrotation Yrotation
        JOINT lShldr
        {
          OFFSET 8.77824 -1.95073 1.46304
          CHANNELS 3 Zrotation Xrotation Yrotation
          JOINT lForeArm
          {
            OFFSET 28.1742 -1.7115 0.48768
            CHANNELS 3 Zrotation Xrotation Yrotation
            JOINT lHand
            {
              OFFSET 22.5879 0.773209 7.07136
              CHANNELS 3 Zrotation Xrotation Yrotation
              JOINT lThumb1
              {
                OFFSET 1.2192 -0.487915 3.41376
                CHANNELS 3 Zrotation Xrotation Yrotation
                JOINT lThumb2
                {
                  OFFSET 3.37035 -0.52449 3.41376
                  CHANNELS 3 Zrotation Xrotation Yrotation
                  End Site
                  {
                    OFFSET 1.78271 -1.18214 1.43049
                  }
                }
              }
              JOINT lIndex1
              {
                OFFSET 7.75947 0.938293 5.60832
                CHANNELS 3 Zrotation Xrotation Yrotation
                JOINT lIndex2
                {
                  OFFSET 2.54057 -0.884171 1.56538
                  CHANNELS 3 Zrotation Xrotation Yrotation
                  End Site
                  {
                    OFFSET 1.62519 -0.234802 1.16502
                  }
                }
              }
              JOINT lMid1
              {
                OFFSET 8.24714 1.18213 3.41376
                CHANNELS 3 Zrotation Xrotation Yrotation
                JOINT lMid2
                {
                  OFFSET 3.10165 -0.590103 1.0647
                  CHANNELS 3 Zrotation Xrotation Yrotation
                  End Site
                  {
                    OFFSET 2.48547 -0.328903 0.83742
                  }
                }
              }
              JOINT lRing1
              {
                OFFSET 8.82822 0.546677 1.51678
                CHANNELS 3 Zrotation Xrotation Yrotation
                JOINT lRing2
                {
                  OFFSET 2.60934 -0.819778 -0.0198488
                  CHANNELS 3 Zrotation Xrotation Yrotation
                  End Site
                  {
                    OFFSET 2.33842 -0.294052 0.168128
                  }
                }
              }
              JOINT lPinky1
              {
                OFFSET 8.27202 -0.0477905 -0.4584
                CHANNELS 3 Zrotation Xrotation Yrotation
                JOINT lPinky2
                {
                  OFFSET 1.82734 -0.647385 -0.700984
                  CHANNELS 3 Zrotation Xrotation Yrotation
                  End Site
                  {
                    OFFSET 1.69225 -0.51767 -0.607171
                  }
                }
              }
            }
          }
        }
      }
    }
  }
  JOINT rButtock
  {
    OFFSET -8.77824 4.35084 1.2192
    CHANNELS 3 Zrotation Xrotation Yrotation
    JOINT rThigh
    {
      OFFSET 0 -1.70687 -2.19456
      CHANNELS 3 Zrotation Xrotation Yrotation
      JOINT rShin
      {
        OFFSET 0 -36.8199 0.73152
        CHANNELS 3 Zrotation Xrotation Yrotation
        JOINT rFoot
        {
          OFFSET 0.73152 -45.1104 -5.12064
          CHANNELS 3 Zrotation Xrotation Yrotation
          End Site
          {
            OFFSET -1.1221 -3.69964 12.103
          }
        }
      }
    }
  }
  JOINT lButtock
  {
    OFFSET 8.77824 4.35084 1.2192
    CHANNELS 3 Zrotation Xrotation Yrotation
    JOINT lThigh
    {
      OFFSET 0 -1.70687 -2.19456
      CHANNELS 3 Zrotation Xrotation Yrotation
      JOINT lShin
      {
        OFFSET 0 -36.8199 0.73152
        CHANNELS 3 Zrotation Xrotation Yrotation
        JOINT lFoot
        {
          OFFSET -0.73152 -45.1104 -5.12064
          CHANNELS 3 Zrotation Xrotation Yrotation
          End Site
          {
            OFFSET 1.1221 -3.69964 12.103
          }
        }
      }
    }
  }
}
MOTION
Frames:	6
Frame Time:	0.00833333
-28.0034 83.6802 60.8081 -0.35656 0.745028 86.5707 -4.54419 13.7693 7.03285 2.63515 -6.87025 2.04919 -9.00619 -5.31503 -2.53043 6.95396 17.6474 -1.38632 -0 0 0 -0 0 0 9.24816e-015 2.04629e-013 1.92635e-014 79.6127 56.7373 -3.59373 -28.4333 -35.7774 76.6364 -0.276495 -14.7934 -2.12711 1.5922e-011 -1.34108e-009 -2.01347e-009 5.27234e-011 -2.32852e-009 -3.48084e-009 1.59382e-011 -1.34109e-009 -2.0135e-009 7.73091 5.47488 0.417314 1.59239e-011 -1.34108e-009 -2.01348e-009 2.90554 0.965183 0.102902 1.59276e-011 -1.34108e-009 -2.01347e-009 10.2786 0.731801 0.0259123 1.59103e-011 -1.34108e-009 -2.01346e-009 2.22167 -0.733487 -0.20892 9.13382e-015 2.04628e-013 1.89498e-014 -58.4184 66.8728 -16.8283 28.2707 -32.6047 -71.4344 0.351071 -16.6131 2.40328 5.15862e-011 -1.16518e-009 1.89267e-009 6.26971e-011 -2.02628e-009 3.27262e-009 5.15815e-011 -1.16518e-009 1.89269e-009 -7.73091 5.47488 -0.417314 5.15896e-011 -1.16518e-009 1.89268e-009 -2.90554 0.965183 -0.102902 5.15811e-011 -1.16519e-009 1.89268e-009 -10.2786 0.731801 -0.0259123 5.1588e-011 -1.16519e-009 1.89267e-009 -2.22167 -0.733487 0.20892 -2.03217e-016 0 -3.88251e-019 -5.11275 -33.5582 -0.722238 -0.139701 25.2181 0.31146 0.842439 -6.29806 6.97647 2.03217e-016 0 3.88251e-019 -4.38542 1.51953 -9.05954 0.0906171 24.8139 -0.5041 -2.6365 -13.8291 -9.80904 
-27.4985 83.68 60.8003 -0.358448 0.756713 87.0609 -4.38808 13.8705 6.98519 2.58243 -6.90823 2.03757 -8.86633 -5.29201 -2.45278 6.79529 17.6262 -1.25131 -0 0 0 -0 0 0 6.59936e-015 6.29939e-014 1.40298e-014 79.718 56.911 -3.90998 -28.4329 -35.8376 76.7371 -0.273754 -14.7214 -2.11628 -6.95697e-011 -1.83388e-009 -2.46682e-009 -9.01108e-011 -3.1845e-009 -4.26572e-009 -6.95537e-011 -1.8339e-009 -2.46684e-009 7.73091 5.47488 0.417314 -6.95669e-011 -1.83389e-009 -2.46682e-009 2.90554 0.965183 0.102902 -6.95643e-011 -1.83389e-009 -2.46682e-009 10.2786 0.731801 0.0259123 -6.95801e-011 -1.83389e-009 -2.46681e-009 2.22167 -0.733487 -0.20892 6.35702e-015 6.29922e-014 1.35915e-014 -58.5462 66.9661 -16.7319 28.2682 -32.5838 -71.4025 0.348791 -16.562 2.39544 1.64295e-010 -1.2819e-009 2.25519e-009 2.52768e-010 -2.23178e-009 3.90142e-009 1.64291e-010 -1.2819e-009 2.25521e-009 -7.73091 5.47488 -0.417314 1.64297e-010 -1.2819e-009 2.25519e-009 -2.90554 0.965183 -0.102902 1.64291e-010 -1.28191e-009 2.25519e-009 -10.2786 0.731801 -0.0259123 1.64298e-010 -1.28191e-009 2.25519e-009 -2.22167 -0.733487 0.20892 -2.03217e-016 0 -3.88251e-019 -5.08911 -33.3337 -0.793877 -0.142567 25.4996 0.315283 0.968099 -6.22896 7.6579 2.03217e-016 0 3.88251e-019 -4.32748 1.56781 -9.25414 0.0940724 25.1543 -0.507915 -2.74691 -13.495 -10.3215 
-26.9835 83.6987 60.7732 -0.346598 0.551557 87.5379 -4.19615 13.9595 6.90582 2.56776 -6.92618 2.02026 -8.72534 -5.26201 -2.37391 6.57375 17.6032 -1.10461 -0 0 0 -0 0 0 5.12444e-015 -2.47939e-014 -5.46658e-016 79.8505 57.0779 -4.23153 -28.4325 -35.8844 76.8159 -0.266023 -14.5268 -2.08698 -1.07077e-010 -2.18413e-009 -2.80739e-009 -1.51448e-010 -3.79274e-009 -4.85504e-009 -1.07062e-010 -2.18415e-009 -2.80742e-009 7.73091 5.47488 0.417314 -1.07074e-010 -2.18414e-009 -2.80739e-009 2.90554 0.965183 0.102902 -1.07071e-010 -2.18414e-009 -2.80739e-009 10.2786 0.731801 0.0259123 -1.07086e-010 -2.18414e-009 -2.80738e-009 2.22167 -0.733487 -0.20892 4.81513e-015 -2.47961e-014 -1.04362e-015 -58.7302 67.0594 -16.5845 28.2659 -32.5631 -71.3697 0.344515 -16.466 2.38072 2.14118e-010 -1.39503e-009 2.58823e-009 3.34654e-010 -2.42982e-009 4.47817e-009 2.14115e-010 -1.39503e-009 2.58825e-009 -7.73091 5.47488 -0.417314 2.1412e-010 -1.39503e-009 2.58824e-009 -2.90554 0.965183 -0.102902 2.14114e-010 -1.39503e-009 2.58824e-009 -10.2786 0.731801 -0.0259123 2.14122e-010 -1.39503e-009 2.58823e-009 -2.22167 -0.733487 0.20892 -2.03217e-016 0 -3.88251e-019 -4.94384 -33.0676 -0.599501 -0.144808 25.7209 0.319259 1.06399 -5.85558 8.42754 2.03217e-016 0 3.88251e-019 -4.1856 1.65667 -9.46239 0.0969921 25.4589 -0.511918 -2.85077 -13.0522 -10.8978 
-26.4178 83.7481 60.8208 -0.309359 0.221732 88.1486 -3.97882 14.0317 6.77344 2.61917 -6.91361 1.99218 -8.5839 -5.22811 -2.294 6.27083 17.5819 -0.943195 -0 0 0 -0 0 0 5.19264e-015 -3.44314e-014 -3.499e-014 80.0377 57.2405 -4.57247 -28.4322 -35.9157 76.8686 -0.249365 -14.0975 -2.02248 -6.27347e-011 -2.35331e-009 -3.02529e-009 -7.29541e-011 -4.08623e-009 -5.23132e-009 -6.2723e-011 -2.35332e-009 -3.02531e-009 7.73091 5.47488 0.417314 -6.27356e-011 -2.35332e-009 -3.02529e-009 2.90554 0.965183 0.102902 -6.273e-011 -2.35332e-009 -3.02529e-009 10.2786 0.731801 0.0259123 -6.27428e-011 -2.35332e-009 -3.02528e-009 2.22167 -0.733487 -0.20892 4.90845e-015 -3.4433e-014 -3.54431e-014 -58.9731 67.1547 -16.3803 28.2643 -32.5464 -71.3418 0.337095 -16.2969 2.35483 1.51187e-010 -1.53276e-009 2.95338e-009 2.21364e-010 -2.66874e-009 5.10861e-009 1.51184e-010 -1.53276e-009 2.95339e-009 -7.73091 5.47488 -0.417314 1.51189e-010 -1.53276e-009 2.95338e-009 -2.90554 0.965183 -0.102902 1.51182e-010 -1.53276e-009 2.95338e-009 -10.2786 0.731801 -0.0259123 1.51191e-010 -1.53276e-009 2.95338e-009 -2.22167 -0.733487 0.20892 -2.03217e-016 0 -3.88251e-019 -4.62386 -32.7419 0.0346606 -0.146115 25.8564 0.323898 1.11942 -5.00255 9.47168 2.03217e-016 0 3.88251e-019 -3.92202 1.82038 -9.70205 0.0986809 25.6812 -0.515869 -2.95434 -12.468 -11.6009 
-25.8027 83.8256 60.9977 -0.250818 -0.0369109 88.8894 -3.72683 14.0908 6.60639 2.71091 -6.87977 1.95751 -8.44158 -5.18695 -2.21415 5.9113 17.5518 -0.773889 -0 0 0 -0 0 0 6.21397e-015 -1.24624e-014 -8.58874e-014 80.258 57.4082 -4.92556 -28.432 -35.9367 76.9038 -0.227866 -13.504 -1.9339 3.42134e-011 -2.40256e-009 -3.14295e-009 9.51305e-011 -4.17125e-009 -5.43368e-009 3.42205e-011 -2.40256e-009 -3.14296e-009 7.73091 5.47488 0.417314 3.42076e-011 -2.40256e-009 -3.14294e-009 2.90554 0.965183 0.102902 3.42174e-011 -2.40256e-009 -3.14295e-009 10.2786 0.731801 0.0259123 3.42065e-011 -2.40256e-009 -3.14294e-009 2.22167 -0.733487 -0.20892 6.01169e-015 -1.24628e-014 -8.62322e-014 -59.2686 67.2481 -16.1267 28.2626 -32.5278 -71.3098 0.326924 -16.0589 2.31853 1.1384e-011 -1.67462e-009 3.33669e-009 -2.48933e-011 -2.91362e-009 5.76926e-009 1.13815e-011 -1.67462e-009 3.3367e-009 -7.73091 5.47488 -0.417314 1.13869e-011 -1.67462e-009 3.33669e-009 -2.90554 0.965183 -0.102902 1.13778e-011 -1.67462e-009 3.33669e-009 -10.2786 0.731801 -0.0259123 1.13874e-011 -1.67462e-009 3.33669e-009 -2.22167 -0.733487 0.20892 -2.03217e-016 0 -3.88251e-019 -4.17393 -32.3611 0.987019 -0.146802 25.9355 0.328992 1.11071 -3.80856 10.7185 2.03217e-016 0 3.88251e-019 -3.56031 2.02664 -9.96351 0.0996886 25.8625 -0.520036 -3.04622 -11.7774 -12.3936 
-25.2096 83.922 61.1225 -0.181925 -0.116676 89.5448 -3.42343 14.1442 6.43877 2.7993 -6.84136 1.92452 -8.29728 -5.13412 -2.13315 5.51838 17.5131 -0.598453 -0 0 0 -0 0 0 7.80015e-015 2.13388e-014 -1.3212e-013 80.4652 57.5681 -5.26427 -28.4319 -35.9487 76.9236 -0.209373 -12.946 -1.85121 1.29506e-010 -2.3727e-009 -3.16582e-009 2.59232e-010 -4.11891e-009 -5.47214e-009 1.29509e-010 -2.37269e-009 -3.16583e-009 7.73091 5.47488 0.417314 1.29495e-010 -2.37269e-009 -3.1658e-009 2.90554 0.965183 0.102902 1.29509e-010 -2.37269e-009 -3.16582e-009 10.2786 0.731801 0.0259123 1.295e-010 -2.37269e-009 -3.16581e-009 2.22167 -0.733487 -0.20892 7.69314e-015 2.13397e-014 -1.32345e-013 -59.6179 67.3375 -15.8287 28.2603 -32.503 -71.2674 0.316698 -15.8125 2.28106 -1.19997e-010 -1.77254e-009 3.61006e-009 -2.55047e-010 -3.08194e-009 6.23983e-009 -1.2e-010 -1.77254e-009 3.61008e-009 -7.73091 5.47488 -0.417314 -1.19994e-010 -1.77253e-009 3.61007e-009 -2.90554 0.965183 -0.102902 -1.20005e-010 -1.77253e-009 3.61008e-009 -10.2786 0.731801 -0.0259123 -1.19994e-010 -1.77253e-009 3.61007e-009 -2.22167 -0.733487 0.20892 -2.03217e-016 0 -3.88251e-019 -3.70267 -31.954 1.94553 -0.147282 25.9941 0.33352 1.01873 -2.57425 11.8042 2.03217e-016 0 3.88251e-019 -3.16577 2.22223 -10.2142 0.101151 26.0765 -0.524737 -3.10076 -11.0306 -13.1604 
